HIERARCHY
ROOT hip
{
  OFFSET 0 0 0
  CHANNELS 6 Xposition Yposition Zposition Zrotation Yrotation Xrotation
  JOINT abdomen
  {
    OFFSET 0 20.6881 -0.73152
    CHANNELS 3 Zrotation Xrotation Yrotation
    JOINT chest
    {
      OFFSET 0 11.7043 -0.48768
      CHANNELS 3 Zrotation Xrotation Yrotation
      JOINT neck
      {
        OFFSET 0 22.1894 -2.19456
        CHANNELS 3 Zrotation Xrotation Yrotation
        JOINT head
        {
          OFFSET -0.24384 7.07133 1.2192
          CHANNELS 3 Zrotation Xrotation Yrotation
          JOINT leftEye
          {
            OFFSET 4.14528 8.04674 8.04672
            CHANNELS 3 Zrotation Xrotation Yrotation
            End Site
            {
              OFFSET 1 0 0
            }
          }
          JOINT rightEye
          {
            OFFSET -3.6576 8.04674 8.04672
            CHANNELS 3 Zrotation Xrotation Yrotation
            End Site
            {
              OFFSET 1 0 0
            }
          }
        }
      }
      JOINT rCollar
      {
        OFFSET -2.68224 19.2634 -4.8768
        CHANNELS 3 Zrotation Xrotation Yrotation
        JOINT rShldr
        {
          OFFSET -8.77824 -1.95073 1.46304
          CHANNELS 3 Zrotation Xrotation Yrotation
          JOINT rForeArm
          {
            OFFSET -28.1742 -1.7115 0.48768
            CHANNELS 3 Zrotation Xrotation Yrotation
            JOINT rHand
            {
              OFFSET -22.5879 0.773209 7.07136
              CHANNELS 3 Zrotation Xrotation Yrotation
              JOINT rThumb1
              {
                OFFSET -1.2192 -0.487915 3.41376
                CHANNELS 3 Zrotation Xrotation Yrotation
                JOINT rThumb2
                {
                  OFFSET -3.37035 -0.52449 3.41376
                  CHANNELS 3 Zrotation Xrotation Yrotation
                  End Site
                  {
                    OFFSET -1.78271 -1.18214 1.43049
                  }
                }
              }
              JOINT rIndex1
              {
                OFFSET -7.75947 0.938293 5.60832
                CHANNELS 3 Zrotation Xrotation Yrotation
                JOINT rIndex2
                {
                  OFFSET -2.54057 -0.884171 1.56538
                  CHANNELS 3 Zrotation Xrotation Yrotation
                  End Site
                  {
                    OFFSET -1.62519 -0.234802 1.16502
                  }
                }
              }
              JOINT rMid1
              {
                OFFSET -8.24714 1.18213 3.41376
                CHANNELS 3 Zrotation Xrotation Yrotation
                JOINT rMid2
                {
                  OFFSET -3.10165 -0.590103 1.0647
                  CHANNELS 3 Zrotation Xrotation Yrotation
                  End Site
                  {
                    OFFSET -2.48547 -0.328903 0.83742
                  }
                }
              }
              JOINT rRing1
              {
                OFFSET -8.82822 0.546677 1.51678
                CHANNELS 3 Zrotation Xrotation Yrotation
                JOINT rRing2
                {
                  OFFSET -2.60934 -0.819778 -0.0198488
                  CHANNELS 3 Zrotation Xrotation Yrotation
                  End Site
                  {
                    OFFSET -2.33842 -0.294052 0.168128
                  }
                }
              }
              JOINT rPinky1
              {
                OFFSET -8.27202 -0.0477905 -0.4584
                CHANNELS 3 Zrotation Xrotation Yrotation
                JOINT rPinky2
                {
                  OFFSET -1.82734 -0.647385 -0.700984
                  CHANNELS 3 Zrotation Xrotation Yrotation
                  End Site
                  {
                    OFFSET -1.69225 -0.51767 -0.607171
                  }
                }
              }
            }
          }
        }
      }
      JOINT lCollar
      {
        OFFSET 2.68224 19.2634 -4.8768
        CHANNELS 3 Zrotation Xrotation Yrotation
        JOINT lShldr
        {
          OFFSET 8.77824 -1.95073 1.46304
          CHANNELS 3 Zrotation Xrotation Yrotation
          JOINT lForeArm
          {
            OFFSET 28.1742 -1.7115 0.48768
            CHANNELS 3 Zrotation Xrotation Yrotation
            JOINT lHand
            {
              OFFSET 22.5879 0.773209 7.07136
              CHANNELS 3 Zrotation Xrotation Yrotation
              JOINT lThumb1
              {
                OFFSET 1.2192 -0.487915 3.41376
                CHANNELS 3 Zrotation Xrotation Yrotation
                JOINT lThumb2
                {
                  OFFSET 3.37035 -0.52449 3.41376
                  CHANNELS 3 Zrotation Xrotation Yrotation
                  End Site
                  {
                    OFFSET 1.78271 -1.18214 1.43049
                  }
                }
              }
              JOINT lIndex1
              {
                OFFSET 7.75947 0.938293 5.60832
                CHANNELS 3 Zrotation Xrotation Yrotation
                JOINT lIndex2
                {
                  OFFSET 2.54057 -0.884171 1.56538
                  CHANNELS 3 Zrotation Xrotation Yrotation
                  End Site
                  {
                    OFFSET 1.62519 -0.234802 1.16502
                  }
                }
              }
              JOINT lMid1
              {
                OFFSET 8.24714 1.18213 3.41376
                CHANNELS 3 Zrotation Xrotation Yrotation
                JOINT lMid2
                {
                  OFFSET 3.10165 -0.590103 1.0647
                  CHANNELS 3 Zrotation Xrotation Yrotation
                  End Site
                  {
                    OFFSET 2.48547 -0.328903 0.83742
                  }
                }
              }
              JOINT lRing1
              {
                OFFSET 8.82822 0.546677 1.51678
                CHANNELS 3 Zrotation Xrotation Yrotation
                JOINT lRing2
                {
                  OFFSET 2.60934 -0.819778 -0.0198488
                  CHANNELS 3 Zrotation Xrotation Yrotation
                  End Site
                  {
                    OFFSET 2.33842 -0.294052 0.168128
                  }
                }
              }
              JOINT lPinky1
              {
                OFFSET 8.27202 -0.0477905 -0.4584
                CHANNELS 3 Zrotation Xrotation Yrotation
                JOINT lPinky2
                {
                  OFFSET 1.82734 -0.647385 -0.700984
                  CHANNELS 3 Zrotation Xrotation Yrotation
                  End Site
                  {
                    OFFSET 1.69225 -0.51767 -0.607171
                  }
                }
              }
            }
          }
        }
      }
    }
  }
  JOINT rButtock
  {
    OFFSET -8.77824 4.35084 1.2192
    CHANNELS 3 Zrotation Xrotation Yrotation
    JOINT rThigh
    {
      OFFSET 0 -1.70687 -2.19456
      CHANNELS 3 Zrotation Xrotation Yrotation
      JOINT rShin
      {
        OFFSET 0 -36.8199 0.73152
        CHANNELS 3 Zrotation Xrotation Yrotation
        JOINT rFoot
        {
          OFFSET 0.73152 -45.1104 -5.12064
          CHANNELS 3 Zrotation Xrotation Yrotation
          End Site
          {
            OFFSET -1.1221 -3.69964 12.103
          }
        }
      }
    }
  }
  JOINT lButtock
  {
    OFFSET 8.77824 4.35084 1.2192
    CHANNELS 3 Zrotation Xrotation Yrotation
    JOINT lThigh
    {
      OFFSET 0 -1.70687 -2.19456
      CHANNELS 3 Zrotation Xrotation Yrotation
      JOINT lShin
      {
        OFFSET 0 -36.8199 0.73152
        CHANNELS 3 Zrotation Xrotation Yrotation
        JOINT lFoot
        {
          OFFSET -0.73152 -45.1104 -5.12064
          CHANNELS 3 Zrotation Xrotation Yrotation
          End Site
          {
            OFFSET 1.1221 -3.69964 12.103
          }
        }
      }
    }
  }
}
MOTION
Frames:	9
Frame Time:	0.00833333
-0.907347 78.4865 -156.51 0.0 0.0 0.0 -1.70023 -0.0027635 -0.0463331 -0.469055 0.00196676 -0.0812261 -1.59369e-15 7.95139e-16 1.2424e-16 -4.76773e-15 3.18055e-15 3.72721e-16 -0.0 0.0 0.0 -0.0 0.0 0.0 -7.97127e-16 -1.1104e-16 9.93923e-17 -1.39114e-14 -2.09966e-15 2.78299e-15 -2.90921e-13 7.95139e-16 6.04305e-14 -3.12494e-12 -4.94725e-13 2.67167e-13 -7.40808e-12 -1.07782e-12 7.02903e-13 -1.27989e-11 -1.87017e-12 1.21179e-12 -7.40433e-12 -1.07662e-12 6.87e-13 7.73091 5.47488 0.417314 -7.41e-12 -1.07851e-12 6.99722e-13 2.90554 0.965183 0.102902 -7.3994e-12 -1.07801e-12 6.96541e-13 10.2786 0.731801 0.0259123 -7.41586e-12 -1.07503e-12 6.99722e-13 2.22167 -0.733487 -0.20892 -7.93203e-16 -1.10846e-16 0.0 -1.82944e-14 -1.70209e-15 3.97569e-16 -2.59861e-13 -1.59028e-13 -6.36111e-15 -3.14607e-12 -3.2387e-13 3.14875e-13 -7.38499e-12 -1.05682e-12 6.83819e-13 -1.27497e-11 -1.82882e-12 1.20066e-12 -7.39121e-12 -1.05594e-12 6.9018e-13 -7.73091 5.47488 -0.417314 -7.38406e-12 -1.05704e-12 6.9018e-13 -2.90554 0.965183 -0.102902 -7.3915e-12 -1.05714e-12 6.93361e-13 -10.2786 0.731801 -0.0259123 -7.38346e-12 -1.05475e-12 6.93361e-13 -2.22167 -0.733487 0.20892 -2.03217e-16 0.0 -3.88251e-19 -0.815099 -1.92421 -0.00353512 -0.00895568 -2.0786 -0.0737845 -0.474688 3.99777 0.134781 2.03217e-16 0.0 3.88251e-19 -1.77343 -6.8476 0.169524 -0.00326764 6.83972 -0.0864436 0.504551 0.0029356 -0.0573382
-2.43846 75.2229 -157.027 -5.0205 -4.5763 1.6084 1.24313 4.38313 0.514572 -0.0218283 -2.10804 0.239572 -0.560976 -0.876569 -0.91121 0.972338 -2.4313 -1.53826 -0.0 0.0 0.0 -0.0 0.0 0.0 -4.36191e-14 -7.9555e-15 3.27839e-14 22.5666 12.4384 0.537569 -24.2915 -22.1395 14.6179 0.0530192 -5.11141 -0.708076 -1.20094e-10 7.93675e-10 -1.09539e-10 -2.06464e-10 1.40535e-09 -1.90828e-10 -1.20089e-10 7.93685e-10 -1.09555e-10 7.73091 5.47488 0.417314 -1.20096e-10 7.93674e-10 -1.09541e-10 2.90554 0.965183 0.102902 -1.20086e-10 7.93675e-10 -1.09544e-10 10.2786 0.731801 0.0259123 -1.20102e-10 7.93678e-10 -1.09539e-10 2.22167 -0.733487 -0.20892 -4.36397e-14 -7.9597e-15 3.26609e-14 -23.1298 12.8592 4.83643 25.1429 -22.9378 -14.382 -0.160977 -8.92031 1.19949 -4.19857e-12 1.76423e-11 1.76809e-11 -7.61863e-12 3.04926e-11 3.13994e-11 -4.20215e-12 1.76448e-11 1.76844e-11 -7.73091 5.47488 -0.417314 -4.19709e-12 1.76447e-11 1.76865e-11 -2.90554 0.965183 -0.102902 -4.20411e-12 1.76435e-11 1.76885e-11 -10.2786 0.731801 -0.0259123 -4.1967e-12 1.7647e-11 1.76884e-11 -2.22167 -0.733487 0.20892 -2.03217e-16 0.0 -3.88251e-19 3.84812 -6.45065 1.05358 0.0809933 13.4649 0.17978 -1.22925 -2.99706 -4.50642 2.03217e-16 0.0 3.88251e-19 1.83217 -16.7092 2.53516 0.0581146 30.5175 -0.419259 0.127845 1.902 -2.53335
-2.46853 75.2652 -154.859 -5.3608 -4.4812 1.9313 4.25742 9.04755 1.09669 0.490164 -4.32803 0.576185 -1.17882 -1.82921 -1.86723 1.85303 -4.99148 -3.15904 -0.0 0.0 0.0 -0.0 0.0 0.0 -9.15805e-14 -1.65434e-14 6.94752e-14 46.1597 25.5868 1.17739 -34.9653 -40.1773 37.6703 -0.0304126 -10.5099 -1.47525 -2.48918e-10 1.67797e-09 -2.37436e-10 -4.27846e-10 2.97159e-09 -4.13589e-10 -2.48913e-10 1.67799e-09 -2.37452e-10 7.73091 5.47488 0.417314 -2.48921e-10 1.67797e-09 -2.37438e-10 2.90554 0.965183 0.102902 -2.48911e-10 1.67797e-09 -2.3744e-10 10.2786 0.731801 0.0259123 -2.48926e-10 1.67797e-09 -2.37432e-10 2.22167 -0.733487 -0.20892 -9.16273e-14 -1.65525e-14 6.93293e-14 -50.1403 26.1318 10.7218 36.0845 -41.7878 -37.8251 0.0945881 -18.3332 2.56763 -2.13213e-12 3.03928e-11 3.95401e-11 -4.56976e-12 5.19909e-11 7.00838e-11 -2.13286e-12 3.03971e-11 3.95405e-11 -7.73091 5.47488 -0.417314 -2.13006e-12 3.0398e-11 3.9545e-11 -2.90554 0.965183 -0.102902 -2.13662e-12 3.03956e-11 3.95458e-11 -10.2786 0.731801 -0.0259123 -2.12989e-12 3.04004e-11 3.95458e-11 -2.22167 -0.733487 0.20892 -2.03217e-16 0.0 -3.88251e-19 8.98385 -11.3521 2.19929 0.0068184 29.9886 0.505245 -3.29702 -10.3423 -9.60537 2.03217e-16 0.0 3.88251e-19 6.66678 -26.9831 5.43722 0.65061 55.6553 -1.15814 -0.0947383 3.94813 -5.21943
-2.48014 75.425 -152.645 -5.6549 -4.3862 2.204 6.86648 13.15 1.67582 0.943855 -6.32736 0.886079 -1.76661 -2.62705 -2.73619 2.52313 -7.2728 -4.64811 -0.0 0.0 0.0 -0.0 0.0 0.0 -1.29263e-13 -2.36444e-14 9.8153e-14 66.847 37.3003 1.97992 -31.0333 -44.9503 66.7392 -0.231745 -15.3247 -2.19382 -3.45466e-10 2.38318e-09 -3.30022e-10 -5.93794e-10 4.2198e-09 -5.74909e-10 -3.45459e-10 2.38321e-09 -3.30039e-10 7.73091 5.47488 0.417314 -3.45468e-10 2.38318e-09 -3.30024e-10 2.90554 0.965183 0.102902 -3.45459e-10 2.38318e-09 -3.30025e-10 10.2786 0.731801 0.0259123 -3.45473e-10 2.38318e-09 -3.30016e-10 2.22167 -0.733487 -0.20892 -1.29333e-13 -2.36574e-14 9.79826e-14 -77.2343 37.3317 17.8983 31.1636 -46.6288 -68.3688 0.750414 -26.7111 3.98029 2.17427e-12 5.50405e-11 5.1675e-11 2.6434e-12 9.51353e-11 9.17968e-11 2.17598e-12 5.50464e-11 5.16729e-11 -7.73091 5.47488 -0.417314 2.17685e-12 5.50481e-11 5.16792e-11 -2.90554 0.965183 -0.102902 2.17068e-12 5.50446e-11 5.16787e-11 -10.2786 0.731801 -0.0259123 2.17683e-12 5.50504e-11 5.16785e-11 -2.22167 -0.733487 0.20892 -2.03217e-16 0.0 -3.88251e-19 13.692 -15.4828 3.26645 -0.280393 44.5483 0.942947 -6.21469 -16.5114 -14.3743 2.03217e-16 0.0 3.88251e-19 12.0065 -36.1682 8.61739 3.79938 77.8413 -4.33347 -0.132662 5.65697 -7.51801
-2.48315 75.71 -150.336 -5.89 -4.311 2.306 8.63755 15.8515 2.21194 1.20337 -7.77565 1.12468 -2.21714 -3.0405 -3.38477 2.93836 -8.8761 -5.77713 -0.0 0.0 0.0 -0.0 0.0 0.0 -1.41248e-13 -2.70279e-14 1.06797e-13 80.8484 45.4376 2.89048 -27.999 -40.4201 84.6777 -0.448494 -18.6894 -2.72496 -3.6132e-10 2.64069e-09 -3.34334e-10 -6.21156e-10 4.67296e-09 -5.82627e-10 -3.61312e-10 2.64072e-09 -3.34349e-10 7.73091 5.47488 0.417314 -3.61322e-10 2.64069e-09 -3.34334e-10 2.90554 0.965183 0.102902 -3.61314e-10 2.64069e-09 -3.34335e-10 10.2786 0.731801 0.0259123 -3.61327e-10 2.64069e-09 -3.34324e-10 2.22167 -0.733487 -0.20892 -1.41333e-13 -2.70425e-14 1.06598e-13 -98.8344 44.3853 25.249 27.7453 -41.5889 -86.8194 1.50332 -32.5483 5.14641 1.20805e-11 1.09431e-10 3.94993e-11 2.02673e-11 1.92395e-10 7.10814e-11 1.20837e-11 1.09438e-10 3.94961e-11 -7.73091 5.47488 -0.417314 1.20835e-11 1.0944e-10 3.95025e-11 -2.90554 0.965183 -0.102902 1.20775e-11 1.09436e-10 3.95009e-11 -10.2786 0.731801 -0.0259123 1.20833e-11 1.09442e-10 3.94993e-11 -2.22167 -0.733487 0.20892 -2.03217e-16 0.0 -3.88251e-19 16.9357 -17.7071 4.03638 -0.692492 54.2013 1.42829 -8.64699 -20.251 -17.6503 2.03217e-16 0.0 3.88251e-19 16.3824 -42.8776 11.3212 158.073 87.0261 -158.567 -0.0947961 6.57042 -8.81151
-2.42999 76.1418 -147.976 -5.9357 -4.2556 2.4434 9.33404 16.5845 2.67359 1.17482 -8.47356 1.26481 -2.45109 -2.93127 -3.72774 3.10968 -9.51247 -6.38927 -0.0 0.0 0.0 -0.0 0.0 0.0 -1.18433e-13 -2.76112e-14 8.21291e-14 85.8917 48.5948 3.66192 -27.8945 -37.5742 90.4116 -0.553365 -20.0377 -2.94612 -2.66525e-10 2.31931e-09 -2.50815e-10 -4.58026e-10 4.09615e-09 -4.37075e-10 -2.66517e-10 2.31934e-09 -2.50828e-10 7.73091 5.47488 0.417314 -2.66527e-10 2.31933e-09 -2.50812e-10 2.90554 0.965183 0.102902 -2.6652e-10 2.31931e-09 -2.50814e-10 10.2786 0.731801 0.0259123 -2.66533e-10 2.31931e-09 -2.50803e-10 2.22167 -0.733487 -0.20892 -1.1852e-13 -2.76237e-14 8.18919e-14 -108.908 46.6753 30.0424 27.6938 -38.3493 -92.1915 1.88702 -34.8994 5.67389 6.00486e-11 3.19248e-10 2.10221e-11 1.03983e-10 5.58514e-10 3.96104e-11 6.00519e-11 3.19256e-10 2.10201e-11 -7.73091 5.47488 -0.417314 6.00517e-11 3.19257e-10 2.10237e-11 -2.90554 0.965183 -0.102902 6.00458e-11 3.19253e-10 2.10208e-11 -10.2786 0.731801 -0.0259123 6.00514e-11 3.19257e-10 2.10159e-11 -2.22167 -0.733487 0.20892 -2.03217e-16 0.0 -3.88251e-19 17.9616 -17.2657 4.33419 -0.887198 57.0055 1.65825 -9.28295 -21.1378 -18.431 2.03217e-16 0.0 3.88251e-19 18.0631 -46.4325 12.4356 170.866 82.3836 -171.33 -0.0993696 6.38535 -8.57693
-2.30203 76.6516 -145.627 -5.8836 -3.8872 2.8186 9.2969 15.9131 3.07009 0.934382 -8.63468 1.33328 -2.52375 -2.44861 -3.85198 3.14011 -9.46429 -6.6247 -0.0 0.0 0.0 -0.0 0.0 0.0 -7.07031e-14 -2.60797e-14 3.39176e-14 84.7474 48.1997 4.15847 -27.7587 -38.4342 90.8947 -0.544578 -19.9475 -2.93082 -9.25845e-11 1.58217e-09 -1.02857e-10 -1.58663e-10 2.77968e-09 -1.79105e-10 -9.25763e-11 1.58219e-09 -1.02868e-10 7.73091 5.47488 0.417314 -9.25861e-11 1.5822e-09 -1.02852e-10 2.90554 0.965183 0.102902 -9.25811e-11 1.58217e-09 -1.02855e-10 10.2786 0.731801 0.0259123 -9.25929e-11 1.58217e-09 -1.02843e-10 2.22167 -0.733487 -0.20892 -7.07833e-14 -2.60876e-14 3.3635e-14 -109.373 46.024 31.9062 27.6179 -38.8979 -92.0048 1.85864 -34.7716 5.64179 1.33764e-10 6.34666e-10 -3.27675e-12 2.32453e-10 1.10748e-09 -1.85948e-12 1.33767e-10 6.34675e-10 -3.27616e-12 -7.73091 5.47488 -0.417314 1.33768e-10 6.34673e-10 -3.27716e-12 -2.90554 0.965183 -0.102902 1.33762e-10 6.3467e-10 -3.28139e-12 -10.2786 0.731801 -0.0259123 1.33767e-10 6.34672e-10 -3.29107e-12 -2.22167 -0.733487 0.20892 -2.03217e-16 0.0 -3.88251e-19 17.374 -14.924 4.28857 -0.776741 54.9188 1.56917 -8.43027 -20.0539 -17.3295 2.03217e-16 0.0 3.88251e-19 17.3301 -47.7975 12.0187 167.009 84.8278 -167.471 -0.119654 5.4132 -7.25797
-2.11652 77.2452 -143.162 -5.7979 -3.2399 3.1217 8.96429 14.6966 3.41625 0.599047 -8.54813 1.36553 -2.52605 -1.79485 -3.88164 3.13442 -9.19301 -6.69453 -0.0 0.0 0.0 -0.0 0.0 0.0 -1.11279e-14 -1.98557e-14 -1.52878e-14 81.2436 46.361 4.44128 -27.5759 -40.8729 89.2746 -0.489205 -19.2704 -2.8189 1.16728e-10 6.02072e-10 1.28085e-10 2.00839e-10 1.03439e-09 2.22672e-10 1.16736e-10 6.02093e-10 1.28077e-10 7.73091 5.47488 0.417314 1.16727e-10 6.02113e-10 1.28093e-10 2.90554 0.965183 0.102902 1.16731e-10 6.02067e-10 1.28089e-10 10.2786 0.731801 0.0259123 1.16719e-10 6.02069e-10 1.281e-10 2.22167 -0.733487 -0.20892 -1.12007e-14 -1.98585e-14 -1.56112e-14 -105.732 44.2546 32.3767 27.529 -40.9905 -89.5679 1.65622 -33.6003 5.37282 1.69424e-10 8.10265e-10 -7.42777e-11 2.96399e-10 1.42063e-09 -1.2516e-10 1.69426e-10 8.10275e-10 -7.4274e-11 -7.73091 5.47488 -0.417314 1.69427e-10 8.1027e-10 -7.42799e-11 -2.90554 0.965183 -0.102902 1.69421e-10 8.10269e-10 -7.42852e-11 -10.2786 0.731801 -0.0259123 1.69427e-10 8.10268e-10 -7.42993e-11 -2.22167 -0.733487 0.20892 -2.03217e-16 0.0 -3.88251e-19 16.1351 -11.8386 4.10664 -0.575215 50.8498 1.37436 -6.96671 -17.8588 -15.4032 2.03217e-16 0.0 3.88251e-19 15.4584 -48.1136 10.806 63.5912 88.8211 -64.0564 -0.0927866 4.13736 -5.6732
-1.92009 77.8938 -140.589 -5.6295 -2.802 3.3547 8.749 13.793 3.73257 0.288246 -8.50298 1.39745 -2.54765 -1.17232 -3.94043 3.18734 -9.15827 -6.8116 -0.0 0.0 0.0 -0.0 0.0 0.0 4.72248e-14 -6.3613e-15 -4.29375e-14 79.0817 45.182 4.66618 -27.5233 -42.4256 88.3898 -0.457028 -18.8584 -2.75147 3.1764e-10 -4.48154e-10 4.60557e-10 5.44386e-10 -8.289e-10 7.99642e-10 3.17648e-10 -4.48138e-10 4.60551e-10 7.73091 5.47488 0.417314 3.17639e-10 -4.48106e-10 4.60567e-10 2.90554 0.965183 0.102902 3.17642e-10 -4.48161e-10 4.60562e-10 10.2786 0.731801 0.0259123 3.17631e-10 -4.48157e-10 4.60573e-10 2.22167 -0.733487 -0.20892 4.71513e-14 -6.36053e-15 -4.32854e-14 -103.868 42.9599 33.2336 27.5859 -42.2025 -87.9678 1.53247 -32.8193 5.20039 1.03224e-10 6.00627e-10 -2.32861e-10 1.86542e-10 1.07929e-09 -4.02122e-10 1.03225e-10 6.00636e-10 -2.32855e-10 -7.73091 5.47488 -0.417314 1.03227e-10 6.0063e-10 -2.32864e-10 -2.90554 0.965183 -0.102902 1.03221e-10 6.0063e-10 -2.3287e-10 -10.2786 0.731801 -0.0259123 1.03227e-10 6.00627e-10 -2.32887e-10 -2.22167 -0.733487 0.20892 -2.03217e-16 0.0 -3.88251e-19 15.1791 -9.16726 3.97481 -0.452634 47.7076 1.24277 -5.67642 -15.4566 -13.664 2.03217e-16 0.0 3.88251e-19 13.8669 -48.5173 9.66938 10.9625 84.8914 -11.4173 -0.0485311 3.0603 -4.62761
